<svg width="256" height="256" viewBox="0 0 256 256" fill="none" xmlns="http://www.w3.org/2000/svg">
<g clip-path="url(#clip0_479_39)">
<rect x="3" y="3" width="250" height="250" rx="125" fill="white"/>
<path d="M121.042 180.372H4.43214L-25.3119 250H-40.8599L59.1881 13.4H76.0881L186.276 250H153.49L121.042 180.372ZM113.944 165.162L60.8781 51.256H59.5261L10.8541 165.162H113.944Z" fill="black"/>
<path d="M106.996 4.39998L179.328 97.35H181.018L252.336 4.39998H270.25L189.468 110.194L291.882 241H253.688L171.216 135.206H169.864L83.5 248L70.8301 241L161.414 123.038L69.1401 4.39998H106.996Z" fill="black"/>
</g>
<rect x="1.5" y="1.5" width="253" height="253" rx="126.5" stroke="black" stroke-width="3"/>
<defs>
<clipPath id="clip0_479_39">
<rect x="3" y="3" width="250" height="250" rx="125" fill="white"/>
</clipPath>
</defs>
</svg>
